<svg width="37" height="38" viewBox="0 0 37 38" fill="none" xmlns="http://www.w3.org/2000/svg">
<path d="M2 19.25C2 9.72309 9.66831 2 19.1277 2C20.8711 2 22.5537 2.26235 24.1387 2.75" stroke="#5F82FF" stroke-width="4" stroke-linecap="round" stroke-linejoin="round"/>
<path fill-rule="evenodd" clip-rule="evenodd" d="M15.4415 22.9624C17.4772 25.0127 20.7777 25.0127 22.8134 22.9624C24.8491 20.9122 33.2763 6.50015 32.5316 5.75015C31.7869 5.00015 17.4772 13.4875 15.4415 15.5378C13.4058 17.5881 13.4058 20.9122 15.4415 22.9624ZM19.1274 20.7501C19.95 20.7501 20.6168 20.0786 20.6168 19.2501C20.6168 18.4217 19.95 17.7501 19.1274 17.7501C18.3049 17.7501 17.6381 18.4217 17.6381 19.2501C17.6381 20.0786 18.3049 20.7501 19.1274 20.7501Z" fill="#5F82FF"/>
<ellipse cx="4.23411" cy="28.25" rx="1.48936" ry="1.5" fill="#5F82FF"/>
<ellipse cx="10.1914" cy="34.25" rx="1.48936" ry="1.5" fill="#5F82FF"/>
<ellipse cx="19.1276" cy="36.5" rx="1.48936" ry="1.5" fill="#5F82FF"/>
<ellipse cx="28.0637" cy="34.25" rx="1.48936" ry="1.5" fill="#5F82FF"/>
<ellipse cx="33.2766" cy="28.25" rx="1.48936" ry="1.5" fill="#5F82FF"/>
<ellipse cx="35.5105" cy="19.25" rx="1.48936" ry="1.5" fill="#5F82FF"/>
</svg>
